<svg width="615" height="902" viewBox="0 0 615 902" fill="none" xmlns="http://www.w3.org/2000/svg">
<path d="M614.186 337.111C614.186 506.576 476.807 643.954 307.343 643.954C137.878 643.954 0.5 506.576 0.5 337.111C0.5 167.647 137.878 30.2686 307.343 30.2686C476.807 30.2686 614.186 167.647 614.186 337.111Z" stroke="white" stroke-opacity="0.09"/>
<path d="M575.768 337.111C575.768 485.358 455.59 605.536 307.343 605.536C159.096 605.536 38.9178 485.358 38.9178 337.111C38.9178 188.864 159.096 68.6865 307.343 68.6865C455.59 68.6865 575.768 188.864 575.768 337.111Z" stroke="white" stroke-opacity="0.09"/>
<path d="M537.35 337.111C537.35 464.14 434.372 567.118 307.343 567.118C180.313 567.118 77.3357 464.14 77.3357 337.111C77.3357 210.082 180.313 107.104 307.343 107.104C434.372 107.104 537.35 210.082 537.35 337.111Z" stroke="white" stroke-opacity="0.09"/>
<path d="M498.932 337.111C498.932 442.923 413.155 528.7 307.343 528.7C201.531 528.7 115.754 442.923 115.754 337.111C115.754 231.299 201.531 145.522 307.343 145.522C413.155 145.522 498.932 231.299 498.932 337.111Z" stroke="white" stroke-opacity="0.09"/>
<path d="M460.514 337.111C460.514 421.706 391.937 490.283 307.343 490.283C222.749 490.283 154.171 421.706 154.171 337.111C154.171 252.517 222.749 183.94 307.343 183.94C391.937 183.94 460.514 252.517 460.514 337.111Z" stroke="white" stroke-opacity="0.09"/>
<path d="M422.096 337.111C422.096 400.488 370.719 451.865 307.343 451.865C243.966 451.865 192.589 400.488 192.589 337.111C192.589 273.735 243.966 222.358 307.343 222.358C370.719 222.358 422.096 273.735 422.096 337.111Z" stroke="white" stroke-opacity="0.09"/>
<circle cx="307.343" cy="337.112" r="76.3357" stroke="white" stroke-opacity="0.09"/>
<circle cx="307.343" cy="337.111" r="37.9178" stroke="white" stroke-opacity="0.09"/>
<mask id="path-9-inside-1_15_299" fill="white">
<path d="M307.343 106.604C343.843 106.604 379.822 115.272 412.318 131.895C444.813 148.517 472.897 172.619 494.257 202.217C515.618 231.814 529.644 266.062 535.182 302.14C540.719 338.217 537.61 375.095 526.11 409.736L307.343 337.111V106.604Z"/>
</mask>
<path d="M307.343 106.604C343.843 106.604 379.822 115.272 412.318 131.895C444.813 148.517 472.897 172.619 494.257 202.217C515.618 231.814 529.644 266.062 535.182 302.14C540.719 338.217 537.61 375.095 526.11 409.736L307.343 337.111V106.604Z" fill="#5388D8" fill-opacity="0.3" stroke="#5388D8" stroke-width="2" mask="url(#path-9-inside-1_15_299)"/>
<mask id="path-10-inside-2_15_299" fill="white">
<path d="M465.62 391.547C456.189 419.291 439.589 444.048 417.502 463.307C395.415 482.565 368.628 495.64 339.858 501.205L308.303 338.072L465.62 391.547Z"/>
</mask>
<path d="M465.62 391.547C456.189 419.291 439.589 444.048 417.502 463.307C395.415 482.565 368.628 495.64 339.858 501.205L308.303 338.072L465.62 391.547Z" fill="#F4BE37" fill-opacity="0.3" stroke="#F4BE37" stroke-width="2" mask="url(#path-10-inside-2_15_299)"/>
<mask id="path-11-inside-3_15_299" fill="white">
<path d="M351.736 592.604C309.417 599.957 265.933 596.683 225.192 583.076C184.451 569.468 147.728 545.954 118.322 514.645C88.9156 483.336 67.7469 445.213 56.7173 403.7C45.6878 362.186 45.1428 318.584 55.1314 276.808L307.343 337.111L351.736 592.604Z"/>
</mask>
<path d="M351.736 592.604C309.417 599.957 265.933 596.683 225.192 583.076C184.451 569.468 147.728 545.954 118.322 514.645C88.9156 483.336 67.7469 445.213 56.7173 403.7C45.6878 362.186 45.1428 318.584 55.1314 276.808L307.343 337.111L351.736 592.604Z" fill="#FF9F40" fill-opacity="0.3" stroke="#FF9F40" stroke-width="2" mask="url(#path-11-inside-3_15_299)"/>
<path d="M55.357 605.955L54.9485 605.666L54.857 605.796V605.955H55.357ZM55.357 748.341L58.2437 745.455L55.357 742.568L52.4702 745.455L55.357 748.341ZM192.949 410.166L54.9485 605.666L55.7655 606.243L193.765 410.743L192.949 410.166ZM54.857 605.955V745.455H55.857V605.955H54.857Z" fill="white"/>
<path d="M511.357 586.455H511.857V586.288L511.758 586.155L511.357 586.455ZM511.357 901.341L514.244 898.455L511.357 895.568L508.47 898.455L511.357 901.341ZM364.956 391.254L510.956 586.754L511.758 586.155L365.758 390.655L364.956 391.254ZM510.857 586.455V898.455H511.857V586.455H510.857Z" fill="white"/>
</svg>
